# xmcd
#
# Track frame offsets: 
#        150
#        13269
#        23316
#        35126
#        47181
#        58867
#        69969
#        81428
#        94270
#        106678
#        119476
#        127816
#        138061
#        147714
#
# Disc length: 2101 seconds
#
# Revision: 0
# Processed by: cddbd v1.5.2PL0 Copyright (c) Steve Scherf et al.
# Submitted via: ExactAudioCopy v1.0b4
#
DISCID=c108330e
DTITLE=Little Willie John - 14 Of His Chart Hits (1953-1962) (LP)
DYEAR=1953
DGENRE=Blues
TTITLE0=All Around The World
TTITLE1=Need Your Love So Bad
TTITLE2=Fever
TTITLE3=Talk To Me, Talk To Me
TTITLE4=You're A Sweetheart
TTITLE5=Leave Me Kitten Alone
TTITLE6=Let Them Talk
TTITLE7=A Cottage For Sale
TTITLE8=Heartbreak (It's Hurting Me)
TTITLE9=Sleep
TTITLE10=Walk Slow
TTITLE11=The Very First Thought Of You
TTITLE12=(I've Got) Spring Fever
TTITLE13=Now You Know
EXTD=
EXTT0=
EXTT1=
EXTT2=
EXTT3=
EXTT4=
EXTT5=
EXTT6=
EXTT7=
EXTT8=
EXTT9=
EXTT10=
EXTT11=
EXTT12=
EXTT13=
PLAYORDER=
